<mxfile host="app.diagrams.net" modified="2022-04-15T16:38:58.782Z" agent="5.0 (Macintosh; Intel Mac OS X 10_15_7) AppleWebKit/537.36 (KHTML, like Gecko) Chrome/99.0.4844.74 Safari/537.36" etag="S_uHIbFYITHRqPYkf3bl" version="17.2.0" type="github">
  <diagram id="HX4TgYhVbhwBFajGFLVx" name="Page-1">
    <mxGraphModel dx="1552" dy="813" grid="1" gridSize="10" guides="1" tooltips="1" connect="1" arrows="1" fold="1" page="1" pageScale="1" pageWidth="827" pageHeight="1169" math="0" shadow="0">
      <root>
        <mxCell id="0" />
        <mxCell id="1" parent="0" />
        <mxCell id="5QKkvulFCDGD3ieYpYFh-51" value="" style="edgeStyle=orthogonalEdgeStyle;rounded=0;orthogonalLoop=1;jettySize=auto;html=1;fontSize=50;" edge="1" parent="1" source="5QKkvulFCDGD3ieYpYFh-1" target="5QKkvulFCDGD3ieYpYFh-50">
          <mxGeometry relative="1" as="geometry" />
        </mxCell>
        <mxCell id="5QKkvulFCDGD3ieYpYFh-52" value="&lt;font style=&quot;font-size: 18px;&quot;&gt;隐义&lt;/font&gt;" style="edgeLabel;html=1;align=center;verticalAlign=middle;resizable=0;points=[];fontSize=18;" vertex="1" connectable="0" parent="5QKkvulFCDGD3ieYpYFh-51">
          <mxGeometry x="-0.5662" y="2" relative="1" as="geometry">
            <mxPoint x="12" as="offset" />
          </mxGeometry>
        </mxCell>
        <mxCell id="5QKkvulFCDGD3ieYpYFh-1" value="尸体" style="rounded=1;whiteSpace=wrap;html=1;fontSize=18;" vertex="1" parent="1">
          <mxGeometry x="100" y="380" width="120" height="60" as="geometry" />
        </mxCell>
        <mxCell id="5QKkvulFCDGD3ieYpYFh-32" style="edgeStyle=orthogonalEdgeStyle;rounded=0;orthogonalLoop=1;jettySize=auto;html=1;entryX=0;entryY=0.5;entryDx=0;entryDy=0;" edge="1" parent="1" source="5QKkvulFCDGD3ieYpYFh-10" target="5QKkvulFCDGD3ieYpYFh-29">
          <mxGeometry relative="1" as="geometry" />
        </mxCell>
        <mxCell id="5QKkvulFCDGD3ieYpYFh-10" value="甲骨文" style="shape=image;imageAspect=0;aspect=fixed;verticalLabelPosition=bottom;verticalAlign=top;image=data:image/svg+xml,PHN2ZyB2ZXJzaW9uPSIxLjAiIHhtbG5zPSJodHRwOi8vd3d3LnczLm9yZy8yMDAwL3N2ZyIKIHdpZHRoPSI0My4wMDAwMDBwdCIgaGVpZ2h0PSI3OS4wMDAwMDBwdCIgdmlld0JveD0iMCAwIDQzLjAwMDAwMCA3OS4wMDAwMDAiCiBwcmVzZXJ2ZUFzcGVjdFJhdGlvPSJ4TWlkWU1pZCBtZWV0Ij4KPG1ldGFkYXRhPgpDcmVhdGVkIGJ5IHBvdHJhY2UgMS4xNSwgd3JpdHRlbiBieSBQZXRlciBTZWxpbmdlciAyMDAxLTIwMTcKPC9tZXRhZGF0YT4KPGcgdHJhbnNmb3JtPSJ0cmFuc2xhdGUoMC4wMDAwMDAsNzkuMDAwMDAwKSBzY2FsZSgwLjEwMDAwMCwtMC4xMDAwMDApIgpmaWxsPSIjMDAwMDAwIiBzdHJva2U9Im5vbmUiPgo8cGF0aCBkPSJNMTcwIDY0MCBjMCAtNSA1IC0xMCAxMCAtMTAgMjEgMCA5IC00MyAtMjAgLTY3IC01MyAtNDQgLTMyIC02MSAyNAotMTggNTYgNDMgNjEgMjkgMTYgLTQyIC0xNiAtMjYgLTMwIC00OSAtMzAgLTUyIDAgLTQgMTEgLTE5IDI1IC0zNSAxNCAtMTYgMjUKLTMzIDI1IC0zNyAwIC01IC0xOCAtMTggLTQwIC0yOSAtMjMgLTEyIC00MyAtMjcgLTQ2IC0zNSAtNCAtOCA4IC0zMyAyNiAtNTUKMzEgLTM5IDMyIC00NCAyOCAtMTE1IC00IC04MyA3IC0xMDEgMTggLTMwIDUgMzkgOSA0NSAyNSA0MCAyMiAtNyAyMiAtNSA5IDMwCi02IDE1IC02IDMzIC0xIDQzIDUgOSAxNCAyOSAyMCA0NSA2IDE1IDE2IDM5IDIyIDU1IDYgMTUgMTUgMzUgMjAgNDQgMjkgNTYKLTI1IDIxMyAtOTEgMjY1IC0xOCAxNSAtNDAgMTcgLTQwIDN6IG0xMDUgLTE1NyBjMTYgLTM5IDEyIC0xMTMgLTYgLTExMyAtNSAwCi05IDQgLTkgOCAwIDUgLTExIDIyIC0yNSAzOCAtMjkgMzQgLTMxIDU2IC04IDg0IDI0IDI4IDMwIDI1IDQ4IC0xN3ogbS0zMwotMTkxIGMtOSAtMjAgLTE4IC0zOSAtMjAgLTQyIC0xIC0yIC0xNCA4IC0yOCAyMyAtMzAgMzIgLTIxIDUzIDI0IDU5IDQwIDUgNDMKMSAyNCAtNDB6Ii8+CjwvZz4KPC9zdmc+Cg==;fontSize=18;" vertex="1" parent="1">
          <mxGeometry x="10.569999999999993" y="70" width="66" height="121" as="geometry" />
        </mxCell>
        <mxCell id="5QKkvulFCDGD3ieYpYFh-33" style="edgeStyle=orthogonalEdgeStyle;rounded=0;orthogonalLoop=1;jettySize=auto;html=1;entryX=0.5;entryY=1;entryDx=0;entryDy=0;" edge="1" parent="1" source="5QKkvulFCDGD3ieYpYFh-11" target="5QKkvulFCDGD3ieYpYFh-10">
          <mxGeometry relative="1" as="geometry" />
        </mxCell>
        <mxCell id="5QKkvulFCDGD3ieYpYFh-35" style="edgeStyle=orthogonalEdgeStyle;rounded=0;orthogonalLoop=1;jettySize=auto;html=1;entryX=0;entryY=0.5;entryDx=0;entryDy=0;" edge="1" parent="1" source="5QKkvulFCDGD3ieYpYFh-11" target="5QKkvulFCDGD3ieYpYFh-34">
          <mxGeometry relative="1" as="geometry" />
        </mxCell>
        <mxCell id="5QKkvulFCDGD3ieYpYFh-11" value="甲骨文" style="shape=image;imageAspect=0;aspect=fixed;verticalLabelPosition=bottom;verticalAlign=top;image=data:image/svg+xml,PHN2ZyB2ZXJzaW9uPSIxLjAiIHhtbG5zPSJodHRwOi8vd3d3LnczLm9yZy8yMDAwL3N2ZyIKIHdpZHRoPSI0Ny4wMDAwMDBwdCIgaGVpZ2h0PSIxNTEuMDAwMDAwcHQiIHZpZXdCb3g9IjAgMCA0Ny4wMDAwMDAgMTUxLjAwMDAwMCIKIHByZXNlcnZlQXNwZWN0UmF0aW89InhNaWRZTWlkIG1lZXQiPgo8bWV0YWRhdGE+CkNyZWF0ZWQgYnkgcG90cmFjZSAxLjE1LCB3cml0dGVuIGJ5IFBldGVyIFNlbGluZ2VyIDIwMDEtMjAxNwo8L21ldGFkYXRhPgo8ZyB0cmFuc2Zvcm09InRyYW5zbGF0ZSgwLjAwMDAwMCwxNTEuMDAwMDAwKSBzY2FsZSgwLjEwMDAwMCwtMC4xMDAwMDApIgpmaWxsPSIjMDAwMDAwIiBzdHJva2U9Im5vbmUiPgo8cGF0aCBkPSJNMTMwIDE0MDggYzAgLTcgMTggLTM4IDQwIC03MCA0MyAtNjAgNDMgLTcyIDMgLTExNiAtNyAtNyAtMTMgLTE2Ci0xMyAtMjAgMCAtNCAtMTYgLTI1IC0zNSAtNDcgLTE5IC0yMiAtMzUgLTQ1IC0zNSAtNTIgMCAtNiAtNCAtMTMgLTkgLTE1IC0xNAotNSAtMjUgLTU4IC0xMiAtNTggMTYgMCA2MSA0MSA2MSA1NiAwIDE3IDkxIDExNCAxMDcgMTE0IDIzIDAgMzcgLTQ1IDM4IC0xMjEKMCAtODIgLTUgLTkyIC04OSAtMTgzIC0zMyAtMzUgLTM2IC00NCAtMzYgLTk2IDAgLTQ5IDQgLTYxIDI5IC04NyAxNiAtMTcgNTEKLTM5IDc3IC00OCA5OSAtMzcgOTggLTUzIC03IC0xNTggLTg3IC04OCAtMTAwIC0xMTcgLTgwIC0xNzggNiAtMTkgMjEgLTQ1IDM0Ci01OSAzMCAtMzIgNDcgLTgyIDQ3IC0xMzYgMCAtMzEgNCAtNDQgMTQgLTQ0IDE4IDAgMjYgMjIgMjYgNzAgMCA0MSAtNSA1NgotNTEgMTU3IC0xNiAzNCAtMjkgNjggLTI5IDc2IDAgOCA0MCA1MiA5MCA5OCA3OCA3MyA5MCA4OCA5MCAxMTcgMCAzNSAtMjUgODIKLTQ0IDgyIC02IDAgLTIyIDkgLTM2IDIwIC0xNCAxMSAtMzEgMjAgLTM3IDIwIC0xMiAwIC0zNyAxOCAtNjkgNDggLTI3IDI2Ci0xNiA2NSAzNiAxMjIgMjggMzAgNTYgNjcgNjIgODMgNyAxNSAxNyAyNyAyMiAyNyA0IDAgNiAzMyA0IDczIC00IDY4IC0xNgoxMDggLTU5IDE4NyAtMTAgMTkgLTI4IDUzIC0zOCA3NSAtMTMgMjcgLTMyIDQ3IC01NiA1OCAtNDMgMjAgLTQ1IDIxIC00NSA1eiIvPgo8L2c+Cjwvc3ZnPgo=;fontSize=18;" vertex="1" parent="1">
          <mxGeometry x="24.64999999999999" y="240" width="37.85" height="121" as="geometry" />
        </mxCell>
        <mxCell id="5QKkvulFCDGD3ieYpYFh-19" style="edgeStyle=orthogonalEdgeStyle;rounded=0;orthogonalLoop=1;jettySize=auto;html=1;" edge="1" parent="1" source="5QKkvulFCDGD3ieYpYFh-12" target="5QKkvulFCDGD3ieYpYFh-15">
          <mxGeometry relative="1" as="geometry" />
        </mxCell>
        <mxCell id="5QKkvulFCDGD3ieYpYFh-43" style="edgeStyle=orthogonalEdgeStyle;rounded=0;orthogonalLoop=1;jettySize=auto;html=1;entryX=0.5;entryY=0;entryDx=0;entryDy=0;fontSize=50;" edge="1" parent="1" source="5QKkvulFCDGD3ieYpYFh-12" target="5QKkvulFCDGD3ieYpYFh-23">
          <mxGeometry relative="1" as="geometry" />
        </mxCell>
        <mxCell id="5QKkvulFCDGD3ieYpYFh-12" value="甲骨文" style="shape=image;imageAspect=0;aspect=fixed;verticalLabelPosition=bottom;verticalAlign=top;image=data:image/svg+xml,PHN2ZyB2ZXJzaW9uPSIxLjAiIHhtbG5zPSJodHRwOi8vd3d3LnczLm9yZy8yMDAwL3N2ZyIKIHdpZHRoPSI1My4wMDAwMDBwdCIgaGVpZ2h0PSI4MS4wMDAwMDBwdCIgdmlld0JveD0iMCAwIDUzLjAwMDAwMCA4MS4wMDAwMDAiCiBwcmVzZXJ2ZUFzcGVjdFJhdGlvPSJ4TWlkWU1pZCBtZWV0Ij4KPG1ldGFkYXRhPgpDcmVhdGVkIGJ5IHBvdHJhY2UgMS4xNSwgd3JpdHRlbiBieSBQZXRlciBTZWxpbmdlciAyMDAxLTIwMTcKPC9tZXRhZGF0YT4KPGcgdHJhbnNmb3JtPSJ0cmFuc2xhdGUoMC4wMDAwMDAsODEuMDAwMDAwKSBzY2FsZSgwLjEwMDAwMCwtMC4xMDAwMDApIgpmaWxsPSIjMDAwMDAwIiBzdHJva2U9Im5vbmUiPgo8cGF0aCBkPSJNMjc4IDcxNCBjLTMgLTMgLTQgLTIzIC0xIC00NCA2IC00MiAtNCAtNTIgLTYyIC02MyAtMTYgLTMgLTQzIC0xMQotNjAgLTE3IC00MiAtMTYgLTEzIC0zMiA0NSAtMjQgNDUgNiA0NSA2IDggLTMxIC0yMSAtMjEgLTM4IC00NSAtMzggLTU0IDEKLTIxIDI0IC01MSAzOSAtNTEgMTkgMCA3IC0yNCAtMTggLTM2IC0yOCAtMTQgLTYxIC00OSAtNjEgLTY1IDAgLTcgNSAtMjcgMTEKLTQ0IDkgLTI1IDkgLTQ2IC00IC0xMDEgLTggLTM4IC0xMyAtNzEgLTEwIC03NCA5IC05IDQzIDQ1IDQzIDcxIDAgMTQgNCAyOSA5CjM1IDYgNSA2IDI3IC0xIDU3IC0xMSA1NSAtNiA3NyAxOSA3NyAyMyAxIDczIDQ0IDczIDY0IDAgOCAtOCAyMSAtMTggMjggLTM2CjI2IC0zNCAzNyAxMSA4MSAzOSAzOCA0NCA0OSA1MCA5OSAzIDMxIDMgNjYgMCA3NyAtNSAyMCAtMjMgMjggLTM1IDE1eiIvPgo8cGF0aCBkPSJNMjk0IDQ3MyBjMTEgLTkzIDkgLTkxIDY5IC04NiA2NSA2IDg4IDI4IDc4IDc1IC0xMSA0OCAtMTEgNDcgLTExCjU4IDAgNiAtMzAgMTAgLTcxIDEwIC03MSAwIC03MSAwIC02NSAtNTd6IG02MyAyMSBjLTMgLTMgLTEyIC00IC0xOSAtMSAtOCAzCi01IDYgNiA2IDExIDEgMTcgLTIgMTMgLTV6IG0xMyAtNTkgYzAgLTggLTkgLTE1IC0yMCAtMTUgLTExIDAgLTIwIDcgLTIwIDE1CjAgOCA5IDE1IDIwIDE1IDExIDAgMjAgLTcgMjAgLTE1eiIvPgo8cGF0aCBkPSJNMjc0IDMwNSBjLTE1IC0yNCAtMTUgLTI4IDAgLTcwIDIwIC01MSAzOCAtNTkgMTA2IC01MCA0OCA3IDQ4IDcgNTUKNTEgMTAgNzIgLTEwIDk0IC04NSA5NCAtNTMgMCAtNjEgLTMgLTc2IC0yNXogbTY0IC03MyBjMiAtNyAtMyAtMTIgLTEyIC0xMgotOSAwIC0xNiA3IC0xNiAxNiAwIDE3IDIyIDE0IDI4IC00eiBtNjYgOSBjMyAtNSAtMSAtMTIgLTEwIC0xNSAtMjIgLTkgLTI0Ci04IC0yNCA5IDAgMTYgMjUgMjEgMzQgNnoiLz4KPC9nPgo8L3N2Zz4K;fontSize=18;" vertex="1" parent="1">
          <mxGeometry x="8.07" y="420" width="71" height="108" as="geometry" />
        </mxCell>
        <mxCell id="5QKkvulFCDGD3ieYpYFh-17" value="" style="edgeStyle=orthogonalEdgeStyle;rounded=0;orthogonalLoop=1;jettySize=auto;html=1;" edge="1" parent="1" source="5QKkvulFCDGD3ieYpYFh-15" target="5QKkvulFCDGD3ieYpYFh-22">
          <mxGeometry relative="1" as="geometry">
            <mxPoint x="760.29" y="438" as="targetPoint" />
          </mxGeometry>
        </mxCell>
        <mxCell id="5QKkvulFCDGD3ieYpYFh-24" style="edgeStyle=orthogonalEdgeStyle;rounded=0;orthogonalLoop=1;jettySize=auto;html=1;entryX=0.5;entryY=1;entryDx=0;entryDy=0;exitX=0.5;exitY=0;exitDx=0;exitDy=0;" edge="1" parent="1" source="5QKkvulFCDGD3ieYpYFh-12" target="5QKkvulFCDGD3ieYpYFh-11">
          <mxGeometry relative="1" as="geometry">
            <mxPoint x="159" y="320" as="targetPoint" />
          </mxGeometry>
        </mxCell>
        <mxCell id="5QKkvulFCDGD3ieYpYFh-28" style="edgeStyle=orthogonalEdgeStyle;rounded=0;orthogonalLoop=1;jettySize=auto;html=1;entryX=0.5;entryY=1;entryDx=0;entryDy=0;" edge="1" parent="1" source="5QKkvulFCDGD3ieYpYFh-15" target="5QKkvulFCDGD3ieYpYFh-27">
          <mxGeometry relative="1" as="geometry" />
        </mxCell>
        <mxCell id="5QKkvulFCDGD3ieYpYFh-76" style="edgeStyle=orthogonalEdgeStyle;rounded=0;orthogonalLoop=1;jettySize=auto;html=1;entryX=1;entryY=0.5;entryDx=0;entryDy=0;fontSize=18;exitX=0.5;exitY=1;exitDx=0;exitDy=0;" edge="1" parent="1" source="5QKkvulFCDGD3ieYpYFh-15" target="5QKkvulFCDGD3ieYpYFh-44">
          <mxGeometry relative="1" as="geometry" />
        </mxCell>
        <mxCell id="5QKkvulFCDGD3ieYpYFh-77" style="edgeStyle=orthogonalEdgeStyle;rounded=0;orthogonalLoop=1;jettySize=auto;html=1;entryX=1;entryY=0.5;entryDx=0;entryDy=0;fontSize=18;exitX=0.5;exitY=1;exitDx=0;exitDy=0;" edge="1" parent="1" source="5QKkvulFCDGD3ieYpYFh-15" target="5QKkvulFCDGD3ieYpYFh-71">
          <mxGeometry relative="1" as="geometry" />
        </mxCell>
        <mxCell id="5QKkvulFCDGD3ieYpYFh-15" value="金文" style="shape=image;imageAspect=0;aspect=fixed;verticalLabelPosition=bottom;verticalAlign=top;image=data:image/svg+xml,PHN2ZyB2ZXJzaW9uPSIxLjAiIHhtbG5zPSJodHRwOi8vd3d3LnczLm9yZy8yMDAwL3N2ZyIKIHdpZHRoPSIxMDEuMDAwMDAwcHQiIGhlaWdodD0iMTQ3LjAwMDAwMHB0IiB2aWV3Qm94PSIwIDAgMTAxLjAwMDAwMCAxNDcuMDAwMDAwIgogcHJlc2VydmVBc3BlY3RSYXRpbz0ieE1pZFlNaWQgbWVldCI+CjxtZXRhZGF0YT4KQ3JlYXRlZCBieSBwb3RyYWNlIDEuMTUsIHdyaXR0ZW4gYnkgUGV0ZXIgU2VsaW5nZXIgMjAwMS0yMDE3CjwvbWV0YWRhdGE+CjxnIHRyYW5zZm9ybT0idHJhbnNsYXRlKDAuMDAwMDAwLDE0Ny4wMDAwMDApIHNjYWxlKDAuMTAwMDAwLC0wLjEwMDAwMCkiCmZpbGw9IiMwMDAwMDAiIHN0cm9rZT0ibm9uZSI+CjxwYXRoIGQ9Ik01NTIgMTI3NyBjLTEzIC0xNSAtNCAtMzEgMjEgLTQwIDEwIC00IDc4IC03IDE1MSAtOCAxMjYgMCAxMzYgMQoxNjAgMjIgMTQgMTIgMjYgMjYgMjYgMzEgMCA0IC03OCA4IC0xNzQgOCAtMTI5IDAgLTE3NiAtMyAtMTg0IC0xM3oiLz4KPHBhdGggZD0iTTE4MyAxMjM5IGMtMTkgLTE5IC0xNiAtNTkgNyAtMTA3IDExIC0yMiAyMCAtNDUgMTkgLTQ5IDAgLTQgLTIyCi0yNiAtNDkgLTQ4IC00NyAtMzkgLTY3IC04NSAtMzcgLTg1IDI0IDAgNzYgMzAgOTYgNTYgMjYgMzIgNDAgMzAgNzkgLTExIDQ0Ci00OCA0NSAtOTMgMiAtMTAxIC0xNiAtNCAtMzAgLTEwIC0zMCAtMTUgMCAtNSAtNyAtOSAtMTUgLTkgLTIyIDAgLTY1IC00MQotNjUgLTYxIDAgLTEwIC00IC0yMSAtMTAgLTI0IC01IC0zIC0xMCAtMjEgLTEwIC00MCAwIC00MyA0NyAtOTUgODUgLTk1IDU0IDAKNjcgLTM5IDY1IC0xOTAgLTEgLTU4IC0zIC0xNTEgLTQgLTIwNyAtMSAtNTcgMiAtMTAzIDYgLTEwMyA0IDAgOCAtOSA4IC0yMCAwCi0xMyA3IC0yMCAxOSAtMjAgMTYgMCAyMSAxMCAyNyA1NyAxMCA2OCAxMCAyOTMgMSA0MTMgLTUgNzkgLTggODcgLTM3IDExMwotMTcgMTUgLTQ0IDMwIC02MSAzNCAtMzAgNiAtMzUgMTMgLTIwIDI5IDUgNSAxMSAyMCAxMyAzNCAyIDIxIDEwIDI2IDQ5IDMzCjQxIDggNDggMTMgNjcgNTMgMTggMzcgMjAgNDggMTAgNzEgLTE3IDM5IC02NiAxMTAgLTk3IDE0MiAtMzAgMzAgLTUxIDY1IC01MQo4NCAwIDcgLTEyIDI4IC0yNyA0NiAtMjMgMjYgLTMwIDMwIC00MCAyMHoiLz4KPHBhdGggZD0iTTYwMCAxMTM4IGMtNDggLTEzIC01NiAtMjEgLTg1IC04NSAtMjggLTYzIC0zMyAtMTM4IC0xMSAtMTgxIDE1Ci0yOSA2MSAtNzMgOTMgLTkxIDE2IC04IDk3IC0yMSAxMzggLTIyIDMxIDAgMTA2IDE1IDExMSAyMiAzIDUgMTIgOSAyMCA5IDggMAoyNSAxMCAzNyAyMyA0MCA0MCA1MiA3NiA1MiAxNTYgMCAxNDEgLTUwIDE4MCAtMjI1IDE4MCAtNTIgLTEgLTExMSAtNSAtMTMwCi0xMXogbTEwOCAtMTAxIGMzIC01NyAzIC01NyAtNjAgLTU4IC02NiAtMSAtOTAgMCAtOTcgNyAtMiAyIDIgMjAgMTAgNDAgMTIKMzIgMjEgMzkgNjkgNTUgMzAgMTAgNjAgMTYgNjUgMTUgNiAtMSAxMSAtMjggMTMgLTU5eiBtMTYwIDMwIGMxMiAtMTEgMjIgLTI4CjIyIC0zNyAwIC05IDUgLTIxIDEyIC0yOCAyMiAtMjIgLTUgLTMyIC02OSAtMjYgLTYxIDcgLTYxIDcgLTY1IDU1IC0xIDI3IC0yCjU0IDAgNTkgNiAxNiA3NSAwIDEwMCAtMjN6IG0tMTYyIC0xNTkgYzggLTggMTIgLTYxIDYgLTc2IC03IC0xOSAtODkgLTQgLTExOAoyMSAtMTMgMTEgLTI0IDMxIC0yNCA0NCAwIDIyIDMgMjIgNjUgMTkgMzYgLTEgNjggLTUgNzEgLTh6IG0yMDQgOCBjMCAtMiAtMTAKLTIzIC0yMiAtNDUgLTE5IC0zNSAtMjYgLTQxIC01NCAtNDEgLTE4IDAgLTM5IC0zIC00OCAtNiAtMTMgLTUgLTE2IDIgLTE2IDM4CjAgMjUgMiA0NyA1IDUwIDcgNiAxMzUgMTAgMTM1IDR6Ii8+CjxwYXRoIGQ9Ik01NDkgNjYxIGMtMjMgLTE4IC0yMyAtMTggMiAtMzIgMzUgLTIwIDM0OCAtMjQgMzc0IC01IDE4IDEzIDE4IDE0Ci0zIDI1IC0xMSA2IC03MCAxMyAtMTI5IDE2IC01OSAzIC0xMzQgOCAtMTY1IDEwIC00NCA0IC02MSAxIC03OSAtMTR6Ii8+CjxwYXRoIGQ9Ik02MjYgNTAxIGMtNCAtNiAtMTUgLTExIC0yNSAtMTEgLTQxIDAgLTkxIC04OSAtOTEgLTE2MiAwIC03MyAzMAotMTE3IDEwNCAtMTU1IDQzIC0yMiA2MSAtMjUgMTQ4IC0yNCAxMTcgMSAxMzAgOCAxNjUgODMgMzMgNzAgMjkgMTM4IC0xMiAxOTQKLTUwIDcxIC02OCA3OSAtMTgxIDgyIC02NiAzIC0xMDQgMCAtMTA4IC03eiBtODIgLTk5IGMzIC0yNyAwIC0zMiAtMTcgLTMyCi0xMiAwIC0yMyAtMSAtMjYgLTIgLTI3IC04IC05NSAtMTMgLTk1IC02IDAgNSA3IDIyIDE1IDM4IDEyIDI0IDIzIDMwIDU3IDMzCjYxIDUgNjMgNCA2NiAtMzF6IG0xNDAgNSBjMTIgLTExIDIyIC0yOSAyMiAtMzkgMCAtMTYgLTcgLTE5IC01MCAtMTcgLTUwIDMKLTUwIDMgLTUwIDQ2IDAgNDIgMSA0MyAyOCAzNyAxNSAtNCAzNyAtMTYgNTAgLTI3eiBtLTE1NyAtMTE2IGMyMSAtMSAyNiAtNQoyNCAtMjMgLTEgLTEzIC0zIC0zMyAtNCAtNDUgLTEgLTI5IC0yMSAtMjkgLTc4IC0xIC03OCAzOSAtODAgODEgLTMgNzMgMTkgLTIKNDcgLTQgNjEgLTR6IG0xODkgLTE2IGMwIC0yNCAtMjIgLTY1IC0zNSAtNjUgLTcgMCAtMjcgLTMgLTQ0IC02IC0zMSAtNiAtMzEKLTYgLTMxIDQwIDAgNDYgMCA0NiA1NSA0NiA0MSAwIDU1IC00IDU1IC0xNXoiLz4KPHBhdGggZD0iTTU4MyA3NSBjLTE4IC04IC0zMyAtMjAgLTMzIC0yOCAwIC0yMCAzNSAtMjUgMTg3IC0yNyAxMjYgLTEgMTMyIDAKMTQ0IDIxIDEwIDE5IDkgMjEgLTYgMTYgLTkgLTQgLTI1IC0yIC0zNSAzIC0xMCA2IC01OCAxMiAtMTA2IDE1IC00OCAzIC05NSA3Ci0xMDMgOSAtOSAzIC0zMSAtMSAtNDggLTl6Ii8+CjwvZz4KPC9zdmc+Cg==;fontSize=18;" vertex="1" parent="1">
          <mxGeometry x="675.22" y="420" width="74" height="108" as="geometry" />
        </mxCell>
        <mxCell id="5QKkvulFCDGD3ieYpYFh-39" value="" style="edgeStyle=orthogonalEdgeStyle;rounded=0;orthogonalLoop=1;jettySize=auto;html=1;" edge="1" parent="1" source="5QKkvulFCDGD3ieYpYFh-22" target="5QKkvulFCDGD3ieYpYFh-38">
          <mxGeometry relative="1" as="geometry" />
        </mxCell>
        <mxCell id="5QKkvulFCDGD3ieYpYFh-22" value="&lt;font style=&quot;font-size: 60px&quot;&gt;彊&lt;/font&gt;" style="rounded=1;whiteSpace=wrap;html=1;" vertex="1" parent="1">
          <mxGeometry x="834" y="444" width="60" height="60" as="geometry" />
        </mxCell>
        <mxCell id="5QKkvulFCDGD3ieYpYFh-47" style="edgeStyle=orthogonalEdgeStyle;rounded=0;orthogonalLoop=1;jettySize=auto;html=1;entryX=0;entryY=0.5;entryDx=0;entryDy=0;fontSize=50;exitX=0.5;exitY=1;exitDx=0;exitDy=0;" edge="1" parent="1" source="5QKkvulFCDGD3ieYpYFh-23" target="5QKkvulFCDGD3ieYpYFh-79">
          <mxGeometry relative="1" as="geometry" />
        </mxCell>
        <mxCell id="5QKkvulFCDGD3ieYpYFh-23" value="甲骨文" style="shape=image;imageAspect=0;aspect=fixed;verticalLabelPosition=bottom;verticalAlign=top;image=data:image/gif,iVBORw0KGgoAAAANSUhEUgAAAFMAAABRCAYAAACuepoLAAAAAXNSR0IArs4c6QAAAARnQU1BAACxjwv8YQUAAAAJcEhZcwAADsMAAA7DAcdvqGQAAAW5SURBVHhe7Zxt0dxGEIRfACYQAiYQAkEQBGEQBqYQCsYQEmERMraeH1PV1TX62h3pHZ2vq7p8upP2Znvna/dsf7zxefh94R8Lvy38d+H/xv8Wfl/410LFbwt5VvlLAuFCrB8niLBfF/6zMHvWxefelwWTY7IuwhmeXYAQGK9nEWF4Mt79WMwKWU2EDrHxdtLNY5B5Fe8RlngOk4oJZvfewUcISlip0Yi3ZXgUGHIfoYnnILYKruOtURfnyDPY1R4IokYjziz+XqhjKhHdOwDAAvEc0ZCJy3vtweTUaK4r4IJwfSZUuVdte4SYPukqMX2R8Liz+LIw7GsvJquvE4ZVucnFzEL7CEg7PN9ezDBUSd6qgHs8OXEELC7PtxfTvQeDKxpm9/gZIXRRRhfkFpDHdNJV+dLHHRXTu4KqqLkEV7RFQL0JjorpkdO61/SGvWLlKTQ6JkTMs+mD8wIfpypyLoGHo+akPxdiPEJAXkO8d+3Uh2fcK4NEwRlkxXHUwy8HgvjE1TM9xJwecp4yMiIQnrtXSChg2aK0FTObfIQRIbknJuQeRF3zxi3yDGQM5dZYjxLTdyl4SPR5HYjYLZGJuZbXQlT1mvAsff5qPkrMvVwWx296H7mXXMtEfTwlwkco893BeC8WZ2uBRvb3t8DFZBKzu59MUN7Ds88ga68gNrdEJuYsXATG5OTnLHw7GtyLnE+Di4kHzQLP1jAdHdNtgxWLfRk8JKvykYo5uj3NOojWYuqkYVU+0nHXdkp7yHJv2+IDXMyKfMQYMd6MJ7ltcPRw+XLopOHMxBV6ZDbqSdkBR5V9l8DF9H32KDTXnW2HAlklrzoavAReLatCKMJzxpOu6DIuhRpcFULaFs0I4JV81MNvg4pZVcW1YZ8RUyt561wZUDFH2xeHetSMmOHdsHWuDISYVSuPV6oIvObUnUKn3Fs4r+Stf0ALRMWcEZOJHzktcvKdtE2eC7nOxmrbXyrCk/CgAEWE0GJSW1QvnCHj7I3HZ+2Bd4SxSp/MZ/MRedNPeLoR2x4hZIC850WCCayJHN5byWx8omb2oLoVEBphmRiFBqGvgC7kG2+88XJg8xDtFimFa/pKQn6twecz7vPUw3PwpXLtUSCgFp+MUZCiF4XZPTpWXJPrEX1rYV4GR8SsZIgMIwoQWr37sbhbzC2G1wdD9BC8NbpvGJwI2xaseGZ0eAXHeRqGzpEDllmSg1vCvRJhEOks4nwhI2PCqghgrHao/MGMKu1jQT8H5T6+F2+PKp9xS/yWYmK0G+pnm0eRiVkx6czjHyEmnjAKmnQdC1b9bI14Oi52twMhrUbOiOm/ZEIP8VE8Qkw3cjR8svaK66rtpI89moouhYs5WnyuzGt0Fj72SLdxOao80z0Hji6MIyuSjxBzJDQ97warik+Wi9uJubaN5D2I0DB2QEFCOj7Lng+OLEyG7DvaiZm1MtVE8CPFAnEygdYWvJ2YW9u/aq7lT2xQsXgN9zy/nZgYmxkajIkFs3vOkDGiP8Tj9r5/jYzT7oB5TSAmSbPt+Q5vIDXgZTPi8uzo8zzXziuBT4jrM+0Mwm6JwmfB7POzZJFH/h3TLfBJ6t9zOgq8JBNLJ46Hc58Sz4/ugAXkfrglfNzT8jckNZzXo0AQnTRjzbREiL2VSvi8HarE1BaLcaomm521zth5KQiZCiPVM6tOiQJqI+S6JZh4GDkjpvarvK5ElkJaQncX/Dma56o8PMNjxATqVb4Hh1ppIfeQIwP+P9TMLEoG36VVHZ5cAv2fB8+QZ9QjlSMt1hr0O3jdHtUHHiE0Xk1FHvXUqjR0O5i4i1JFhICELEXvSNONcBHiPNuyt9wCxocnXE2+J7zX8zTvqx2PCO81xHZPiw+TC6oodxA7XhaIHQxvosq6R1WR8X9JkOvw6vBoZSbUEbb8WfezQeEhZM+ki9Z9ZScgrqaMjG/ci4+Pn6/le+ZgZnk9AAAAAElFTkSuQmCC;fontSize=18;" vertex="1" parent="1">
          <mxGeometry x="8.069999999999999" y="600" width="71.94" height="70" as="geometry" />
        </mxCell>
        <mxCell id="5QKkvulFCDGD3ieYpYFh-36" style="edgeStyle=orthogonalEdgeStyle;rounded=0;orthogonalLoop=1;jettySize=auto;html=1;" edge="1" parent="1" source="5QKkvulFCDGD3ieYpYFh-27" target="5QKkvulFCDGD3ieYpYFh-34">
          <mxGeometry relative="1" as="geometry" />
        </mxCell>
        <mxCell id="5QKkvulFCDGD3ieYpYFh-37" style="edgeStyle=orthogonalEdgeStyle;rounded=0;orthogonalLoop=1;jettySize=auto;html=1;entryX=1;entryY=0.5;entryDx=0;entryDy=0;exitX=0.5;exitY=0;exitDx=0;exitDy=0;" edge="1" parent="1" source="5QKkvulFCDGD3ieYpYFh-27" target="5QKkvulFCDGD3ieYpYFh-29">
          <mxGeometry relative="1" as="geometry" />
        </mxCell>
        <mxCell id="5QKkvulFCDGD3ieYpYFh-27" value="金文" style="shape=image;imageAspect=0;aspect=fixed;verticalLabelPosition=bottom;verticalAlign=top;image=data:image/svg+xml,PHN2ZyB2ZXJzaW9uPSIxLjAiIHhtbG5zPSJodHRwOi8vd3d3LnczLm9yZy8yMDAwL3N2ZyIKIHdpZHRoPSI0Ny4wMDAwMDBwdCIgaGVpZ2h0PSIxNTEuMDAwMDAwcHQiIHZpZXdCb3g9IjAgMCA0Ny4wMDAwMDAgMTUxLjAwMDAwMCIKIHByZXNlcnZlQXNwZWN0UmF0aW89InhNaWRZTWlkIG1lZXQiPgo8bWV0YWRhdGE+CkNyZWF0ZWQgYnkgcG90cmFjZSAxLjE1LCB3cml0dGVuIGJ5IFBldGVyIFNlbGluZ2VyIDIwMDEtMjAxNwo8L21ldGFkYXRhPgo8ZyB0cmFuc2Zvcm09InRyYW5zbGF0ZSgwLjAwMDAwMCwxNTEuMDAwMDAwKSBzY2FsZSgwLjEwMDAwMCwtMC4xMDAwMDApIgpmaWxsPSIjMDAwMDAwIiBzdHJva2U9Im5vbmUiPgo8cGF0aCBkPSJNMTMwIDE0MDggYzAgLTcgMTggLTM4IDQwIC03MCA0MyAtNjAgNDMgLTcyIDMgLTExNiAtNyAtNyAtMTMgLTE2Ci0xMyAtMjAgMCAtNCAtMTYgLTI1IC0zNSAtNDcgLTE5IC0yMiAtMzUgLTQ1IC0zNSAtNTIgMCAtNiAtNCAtMTMgLTkgLTE1IC0xNAotNSAtMjUgLTU4IC0xMiAtNTggMTYgMCA2MSA0MSA2MSA1NiAwIDE3IDkxIDExNCAxMDcgMTE0IDIzIDAgMzcgLTQ1IDM4IC0xMjEKMCAtODIgLTUgLTkyIC04OSAtMTgzIC0zMyAtMzUgLTM2IC00NCAtMzYgLTk2IDAgLTQ5IDQgLTYxIDI5IC04NyAxNiAtMTcgNTEKLTM5IDc3IC00OCA5OSAtMzcgOTggLTUzIC03IC0xNTggLTg3IC04OCAtMTAwIC0xMTcgLTgwIC0xNzggNiAtMTkgMjEgLTQ1IDM0Ci01OSAzMCAtMzIgNDcgLTgyIDQ3IC0xMzYgMCAtMzEgNCAtNDQgMTQgLTQ0IDE4IDAgMjYgMjIgMjYgNzAgMCA0MSAtNSA1NgotNTEgMTU3IC0xNiAzNCAtMjkgNjggLTI5IDc2IDAgOCA0MCA1MiA5MCA5OCA3OCA3MyA5MCA4OCA5MCAxMTcgMCAzNSAtMjUgODIKLTQ0IDgyIC02IDAgLTIyIDkgLTM2IDIwIC0xNCAxMSAtMzEgMjAgLTM3IDIwIC0xMiAwIC0zNyAxOCAtNjkgNDggLTI3IDI2Ci0xNiA2NSAzNiAxMjIgMjggMzAgNTYgNjcgNjIgODMgNyAxNSAxNyAyNyAyMiAyNyA0IDAgNiAzMyA0IDczIC00IDY4IC0xNgoxMDggLTU5IDE4NyAtMTAgMTkgLTI4IDUzIC0zOCA3NSAtMTMgMjcgLTMyIDQ3IC01NiA1OCAtNDMgMjAgLTQ1IDIxIC00NSA1eiIvPgo8L2c+Cjwvc3ZnPgo=;fontSize=18;" vertex="1" parent="1">
          <mxGeometry x="693.29" y="240" width="37.85" height="121" as="geometry" />
        </mxCell>
        <mxCell id="5QKkvulFCDGD3ieYpYFh-59" value="" style="edgeStyle=orthogonalEdgeStyle;rounded=0;orthogonalLoop=1;jettySize=auto;html=1;fontSize=18;" edge="1" parent="1" source="5QKkvulFCDGD3ieYpYFh-29" target="5QKkvulFCDGD3ieYpYFh-58">
          <mxGeometry relative="1" as="geometry" />
        </mxCell>
        <mxCell id="5QKkvulFCDGD3ieYpYFh-29" value="&lt;font style=&quot;font-size: 50px&quot;&gt;弓&lt;/font&gt;" style="rounded=1;whiteSpace=wrap;html=1;" vertex="1" parent="1">
          <mxGeometry x="130" y="100" width="60" height="60" as="geometry" />
        </mxCell>
        <mxCell id="5QKkvulFCDGD3ieYpYFh-49" style="edgeStyle=orthogonalEdgeStyle;rounded=0;orthogonalLoop=1;jettySize=auto;html=1;fontSize=50;" edge="1" parent="1" source="5QKkvulFCDGD3ieYpYFh-34" target="5QKkvulFCDGD3ieYpYFh-1">
          <mxGeometry relative="1" as="geometry" />
        </mxCell>
        <mxCell id="5QKkvulFCDGD3ieYpYFh-34" value="&lt;font style=&quot;font-size: 50px&quot;&gt;尸&lt;/font&gt;" style="rounded=1;whiteSpace=wrap;html=1;" vertex="1" parent="1">
          <mxGeometry x="130" y="270" width="60" height="60" as="geometry" />
        </mxCell>
        <mxCell id="5QKkvulFCDGD3ieYpYFh-38" value="&lt;span style=&quot;color: rgb(51 , 51 , 51) ; font-family: &amp;#34;helvetica neue&amp;#34; , &amp;#34;helvetica&amp;#34; , &amp;#34;arial&amp;#34; , sans-serif ; font-size: 50px ; background-color: rgb(217 , 237 , 247)&quot;&gt;强&lt;/span&gt;" style="rounded=1;whiteSpace=wrap;html=1;" vertex="1" parent="1">
          <mxGeometry x="980" y="444" width="60" height="60" as="geometry" />
        </mxCell>
        <mxCell id="5QKkvulFCDGD3ieYpYFh-48" style="edgeStyle=orthogonalEdgeStyle;rounded=0;orthogonalLoop=1;jettySize=auto;html=1;entryX=1;entryY=0.5;entryDx=0;entryDy=0;fontSize=50;startArrow=none;" edge="1" parent="1" source="5QKkvulFCDGD3ieYpYFh-71" target="5QKkvulFCDGD3ieYpYFh-46">
          <mxGeometry relative="1" as="geometry" />
        </mxCell>
        <mxCell id="5QKkvulFCDGD3ieYpYFh-54" value="" style="edgeStyle=orthogonalEdgeStyle;rounded=0;orthogonalLoop=1;jettySize=auto;html=1;fontSize=18;" edge="1" parent="1" source="5QKkvulFCDGD3ieYpYFh-46" target="5QKkvulFCDGD3ieYpYFh-53">
          <mxGeometry relative="1" as="geometry" />
        </mxCell>
        <mxCell id="5QKkvulFCDGD3ieYpYFh-46" value="&lt;span style=&quot;font-size: 50px&quot;&gt;畺&lt;/span&gt;" style="rounded=1;whiteSpace=wrap;html=1;" vertex="1" parent="1">
          <mxGeometry x="130" y="605.08" width="60" height="60" as="geometry" />
        </mxCell>
        <mxCell id="5QKkvulFCDGD3ieYpYFh-69" value="" style="edgeStyle=orthogonalEdgeStyle;rounded=0;orthogonalLoop=1;jettySize=auto;html=1;fontSize=18;" edge="1" parent="1" source="5QKkvulFCDGD3ieYpYFh-50" target="5QKkvulFCDGD3ieYpYFh-68">
          <mxGeometry relative="1" as="geometry" />
        </mxCell>
        <mxCell id="5QKkvulFCDGD3ieYpYFh-70" value="衍生" style="edgeLabel;html=1;align=center;verticalAlign=middle;resizable=0;points=[];fontSize=18;" vertex="1" connectable="0" parent="5QKkvulFCDGD3ieYpYFh-69">
          <mxGeometry x="-0.2694" y="3" relative="1" as="geometry">
            <mxPoint as="offset" />
          </mxGeometry>
        </mxCell>
        <mxCell id="5QKkvulFCDGD3ieYpYFh-50" value="僵硬" style="rounded=1;whiteSpace=wrap;html=1;fontSize=18;" vertex="1" parent="1">
          <mxGeometry x="310" y="380" width="120" height="60" as="geometry" />
        </mxCell>
        <mxCell id="5QKkvulFCDGD3ieYpYFh-56" value="" style="edgeStyle=orthogonalEdgeStyle;rounded=0;orthogonalLoop=1;jettySize=auto;html=1;fontSize=18;" edge="1" parent="1" source="5QKkvulFCDGD3ieYpYFh-53" target="5QKkvulFCDGD3ieYpYFh-55">
          <mxGeometry relative="1" as="geometry" />
        </mxCell>
        <mxCell id="5QKkvulFCDGD3ieYpYFh-57" value="衍生" style="edgeLabel;html=1;align=center;verticalAlign=middle;resizable=0;points=[];fontSize=18;" vertex="1" connectable="0" parent="5QKkvulFCDGD3ieYpYFh-56">
          <mxGeometry x="-0.4926" relative="1" as="geometry">
            <mxPoint x="10" as="offset" />
          </mxGeometry>
        </mxCell>
        <mxCell id="5QKkvulFCDGD3ieYpYFh-53" value="&lt;font style=&quot;font-size: 18px&quot;&gt;地界&lt;/font&gt;" style="whiteSpace=wrap;html=1;rounded=1;" vertex="1" parent="1">
          <mxGeometry x="100" y="510" width="120" height="60" as="geometry" />
        </mxCell>
        <mxCell id="5QKkvulFCDGD3ieYpYFh-66" value="" style="edgeStyle=orthogonalEdgeStyle;rounded=0;orthogonalLoop=1;jettySize=auto;html=1;fontSize=18;" edge="1" parent="1" source="5QKkvulFCDGD3ieYpYFh-55" target="5QKkvulFCDGD3ieYpYFh-65">
          <mxGeometry relative="1" as="geometry" />
        </mxCell>
        <mxCell id="5QKkvulFCDGD3ieYpYFh-67" value="隐义" style="edgeLabel;html=1;align=center;verticalAlign=middle;resizable=0;points=[];fontSize=18;" vertex="1" connectable="0" parent="5QKkvulFCDGD3ieYpYFh-66">
          <mxGeometry x="-0.1595" y="-2" relative="1" as="geometry">
            <mxPoint as="offset" />
          </mxGeometry>
        </mxCell>
        <mxCell id="5QKkvulFCDGD3ieYpYFh-55" value="&lt;font style=&quot;font-size: 18px&quot;&gt;边界&lt;/font&gt;" style="whiteSpace=wrap;html=1;rounded=1;" vertex="1" parent="1">
          <mxGeometry x="310" y="510" width="120" height="60" as="geometry" />
        </mxCell>
        <mxCell id="5QKkvulFCDGD3ieYpYFh-61" value="" style="edgeStyle=orthogonalEdgeStyle;rounded=0;orthogonalLoop=1;jettySize=auto;html=1;fontSize=18;" edge="1" parent="1" source="5QKkvulFCDGD3ieYpYFh-58" target="5QKkvulFCDGD3ieYpYFh-60">
          <mxGeometry relative="1" as="geometry" />
        </mxCell>
        <mxCell id="5QKkvulFCDGD3ieYpYFh-62" value="隐义" style="edgeLabel;html=1;align=center;verticalAlign=middle;resizable=0;points=[];fontSize=18;" vertex="1" connectable="0" parent="5QKkvulFCDGD3ieYpYFh-61">
          <mxGeometry x="-0.3222" relative="1" as="geometry">
            <mxPoint as="offset" />
          </mxGeometry>
        </mxCell>
        <mxCell id="5QKkvulFCDGD3ieYpYFh-58" value="&lt;font style=&quot;font-size: 18px&quot;&gt;远程武器&lt;/font&gt;" style="whiteSpace=wrap;html=1;rounded=1;" vertex="1" parent="1">
          <mxGeometry x="100" y="191" width="120" height="60" as="geometry" />
        </mxCell>
        <mxCell id="5QKkvulFCDGD3ieYpYFh-60" value="&lt;span style=&quot;font-size: 18px&quot;&gt;防御或攻击&lt;/span&gt;" style="whiteSpace=wrap;html=1;rounded=1;" vertex="1" parent="1">
          <mxGeometry x="310" y="191" width="120" height="60" as="geometry" />
        </mxCell>
        <mxCell id="5QKkvulFCDGD3ieYpYFh-65" value="&lt;font style=&quot;font-size: 18px&quot;&gt;防御&lt;/font&gt;" style="whiteSpace=wrap;html=1;rounded=1;" vertex="1" parent="1">
          <mxGeometry x="520" y="510" width="120" height="60" as="geometry" />
        </mxCell>
        <mxCell id="5QKkvulFCDGD3ieYpYFh-68" value="强势" style="rounded=1;whiteSpace=wrap;html=1;fontSize=18;" vertex="1" parent="1">
          <mxGeometry x="520" y="380" width="120" height="60" as="geometry" />
        </mxCell>
        <mxCell id="5QKkvulFCDGD3ieYpYFh-71" value="金文" style="shape=image;imageAspect=0;aspect=fixed;verticalLabelPosition=bottom;verticalAlign=top;image=data:image/gif,iVBORw0KGgoAAAANSUhEUgAAAFMAAABRCAYAAACuepoLAAAAAXNSR0IArs4c6QAAAARnQU1BAACxjwv8YQUAAAAJcEhZcwAADsMAAA7DAcdvqGQAAAPWSURBVHhe7ZzhjdRADIW3ABqgARqgASqgAjqgA1qgBWqgCbqgmSOfdE96spyMd5cfd2M/6Wn3EmdRvnhm7GSX2xvXx8Ofix4FfTr8/fDvw39f/VI0sRz34/Cvw+0FhHsAZub4gWnS0CXL8M/Dfy4MPOJmuI9Go9Fo9Bb05bBWcTfbqUNHC304XK0xiVE59O3wyERtmEGsFu/E0fmQua0VQSrraClRbC8dYmbi6OfbCVACBMDVkAW8g6MrYi7l2HhB2nVCQODkq320wwSYiwujz8v2by0ySideXaH9mLML4ECJ317MaT68q3KYZ1NCnDq2F3OdoNyTPYIJrKtFhqxV3PZidRZMwFalIbyCRInUBiZDUTAxkIDK0L2aPwVzNXy1ULWAGUucaCAATJAZ3pjt7B+YpgjT4fFe0M7Mfopzpgs+K4oMV9z28tWcV/pyl55Iko2Vzof9fjF8ewtx4jrpVU8N7AhJ1rbMbWCqzMGAXcnhe40ZM9gBt4HpQx3rxsaZFMvrVY35aA377uUnjs+Gu+pGvMpiQa9k+3by4QuIbHV26Lw/kzofvLoDtaWA58Od9xGEA8+yl20e0zIrJdWFbqCShZ6VbHMBkYUnHle9C7WtAOoZmpn9ZB2OsfwN2PYgXcq2FVgsuKzaVyt8ewGHBSXLQLZnc+eoIIYuC1W20o9Go9FoNBqNRpmmfnxSdDfcwPDuhvdu9eBqF2V6eF0A2ffTGbW6OJy0g/N28X9Zn93uvmbMNB5heLZx48Mz1S8EzmDiljCflffu7tFoNBqNRqN3LDoj6kKe8WT1ZDQxxE4t+SraPz04w1nxXTHHfj3cUmopHQadTuy9AR2hqTNS9vr+q6/PbCmAOQCAXT33dmBAdOmRsH9ejNla+koLkCrzHRmo+DPofoGu4raTMq06xznMK5GRAkq2bi/PoOrNCMEH6kqKXYHfQp5l1cy8B2Y1i7eQwMj8DQBWYcqkONexTcfwGn+ZEdUaZjT73av90R63/SLkJ0wWsWiQlbzHGZhHzPFbiwXnnpNlTnWowPaCXuaCZMX99lKNiSvfsfSvYa+Kcf+1MP/O9gLgPSfsteM9MCvNwBbSilsB5JnMkD5T7IDaCChxLjzLJI/LYOo/l1IM8ZXpYytFoAIBGGBgz0rM/MlxGPjExouSAW+hDOgj5jPa3XrLRGFNFjJ3qs7MgGUWxDZ3iB6RvqEB4MzAnx9PjUajDqLcYaHRYiNrm8+LbcucqqgPAVpdtSNwjhVwYLtbCwBAUbYKWga1Yo5t05NXpUzTUJeVkdlUIZjsHz2pqTv30u32Dyz7rdvLRZFoAAAAAElFTkSuQmCC;fontSize=18;" vertex="1" parent="1">
          <mxGeometry x="329" y="720.08" width="84" height="82" as="geometry" />
        </mxCell>
        <mxCell id="5QKkvulFCDGD3ieYpYFh-78" style="edgeStyle=orthogonalEdgeStyle;rounded=0;orthogonalLoop=1;jettySize=auto;html=1;entryX=1;entryY=0.5;entryDx=0;entryDy=0;fontSize=18;" edge="1" parent="1" source="5QKkvulFCDGD3ieYpYFh-44" target="5QKkvulFCDGD3ieYpYFh-46">
          <mxGeometry relative="1" as="geometry" />
        </mxCell>
        <mxCell id="5QKkvulFCDGD3ieYpYFh-44" value="金文" style="shape=image;imageAspect=0;aspect=fixed;verticalLabelPosition=bottom;verticalAlign=top;image=data:image/gif,iVBORw0KGgoAAAANSUhEUgAAAFMAAABRCAYAAACuepoLAAAAAXNSR0IArs4c6QAAAARnQU1BAACxjwv8YQUAAAAJcEhZcwAADsMAAA7DAcdvqGQAAARsSURBVHhe7ZuNjdswDIUzQBfoArdAF+gEnaAbdINboSt0hi7RLbpM6w8IAeKBkqjEwMWUHvCQO1uyoWf+iXFuH4xP98+NJ/Hz4N87/3T4++C78O3gxh2I9O9JIvLXg0sjEtIsVI9niKUuiUjIXwcN3w/2RG1ZtL/GElAhEA3xFF8ORoKaYLh2JOqPg0sAAfzCEQvRWojE0qQTPZzPB8uDZOEXPcrGkVAKrqEWzH3Kwy86cm2FitmKiRz342Dm+pcF7mwLjSwsgorZEkjDB8ze45JACFtoNuuqmL34qq4Oy5ZLLMwWya4nAy/QyNIiV2dOyWTkxcTiMpgRk5LIxnpmveBS8GLCzBZwRkwfkz2Z1wsPl4QmCayzVxqpOIjy7SDHuRYPB2J5XEvjqydzS7l7z3JMDC8Ox6Pxj5JrlsLZAs2Qe5dCzxVn6K2ZyiBjyeV2RSzcLxABcGsTxMjxSBzGteIs3Xrm6hxjuR2RJqFevRkloBGinVB27iXhLQ5LauERMUFk0WUbH7pTabntmWKWbXqoK7Z2KGeJmZ13WfhEwWKjgjqqS0f9T99MMZbvbeqiI+uMxORYCxo+jGVd3MN33SHu75EVk3mtkmiJjjvQrxvU3XtiMg6L64moD6c8tJOEONbA0AIfIrhRz9l5miHLohXrZok1lmwEzwKX1RiaJda8RJKZBXEUS225McIZGbdFTAB3JW56UbdwJwARl8vMGxsbGxuvD7aYJCjbNfFJ0or28UuDEglREAeRqC2tzuxtK42cXxpYmRXuI7FGRPRlYIW5ZyTKDLnGkl0j3HhWQC+8ubyPlUs3O1pvr5lYJhSxE+7O0ACIZUmFTwTeom1sbGxsbFQAdSMFuNWTSnZKu3Hcgd9ORvVnRIRd5geoI1BTUpzPCBiR+dSsywJXflZE5ZKiImQkBLSvcnlDIxLb4mbvQXC+/E6K+MZC/cLNmqLF6wsKzPXg+/ZWmOBYyUYxi1IR+R8L7AGR/ZxWsuFBRG+GIGgpC41iI66cgQo0eumV6/rxMHuvSyCyyCz8XB5IBs/c7+WhVkmMy8LPxUozoF7198s+hEtAxczuXIizft5MyaPhoUwi8mLOWIl24me2j1p6Za365fGomM9YF4nKz52d/7J4VEw/D47KKIXOLyGmZlcsDheOFkdNyHGSlJ8DZ0ocfpy6hJieLFgZjTMiKImoRR4U99Pr8H8JsEi/sI9gmVpTMytWot+JQ1zfLGxkobPkmiWgmTVjJSqmxdgMo3g72oZeCl6cWTH5ewZaUs3Of3n4BsRocWrJMwU3lqkPolxfUwXqxTAE8WNbbTeFCgnLJB6FWieLj4DQflzGsiIhYan2m8Lvt1uC+gTCmBFaQpa1Sg9fKkWCIkJWEB5OJORMnL081OWt7uS4F4e/I9BB0qxtLO3aLXgLbBExSV5YL2IjYGSJxtlmSBmQWNQSI47OQ8Ys/eN9DywqY6lKRCyzVTwbuHTLWjkGEZ0xM5335WGx0lhuJ7PRxO32H3x2ElM3tU6uAAAAAElFTkSuQmCC;fontSize=18;" vertex="1" parent="1">
          <mxGeometry x="329" y="594" width="84.43" height="82.15" as="geometry" />
        </mxCell>
        <mxCell id="5QKkvulFCDGD3ieYpYFh-81" style="edgeStyle=orthogonalEdgeStyle;rounded=0;orthogonalLoop=1;jettySize=auto;html=1;entryX=0.5;entryY=1;entryDx=0;entryDy=0;fontSize=50;" edge="1" parent="1" source="5QKkvulFCDGD3ieYpYFh-79" target="5QKkvulFCDGD3ieYpYFh-46">
          <mxGeometry relative="1" as="geometry" />
        </mxCell>
        <mxCell id="5QKkvulFCDGD3ieYpYFh-79" value="&lt;font style=&quot;font-size: 50px&quot;&gt;畕&lt;/font&gt;" style="rounded=1;whiteSpace=wrap;html=1;" vertex="1" parent="1">
          <mxGeometry x="130" y="720.08" width="60" height="60" as="geometry" />
        </mxCell>
      </root>
    </mxGraphModel>
  </diagram>
</mxfile>
